<svg width="10" height="9" viewBox="0 0 10 9" fill="none" xmlns="http://www.w3.org/2000/svg">
<path fill-rule="evenodd" clip-rule="evenodd" d="M0 4.01551C0 3.8166 0.0790175 3.62583 0.21967 3.48518C0.360322 3.34453 0.551088 3.26551 0.75 3.26551H7.388L5.23 1.30551C5.15565 1.23807 5.0956 1.1564 5.0534 1.06533C5.0112 0.974258 4.98771 0.875643 4.98432 0.775326C4.98093 0.67501 4.99771 0.575034 5.03367 0.481322C5.06963 0.387611 5.12403 0.30207 5.19365 0.229769C5.26328 0.157468 5.3467 0.0998776 5.43899 0.0604106C5.53128 0.0209437 5.63055 0.000402983 5.73093 5.87038e-06C5.8313 -0.000391242 5.93073 0.019363 6.02333 0.0580985C6.11593 0.0968339 6.19981 0.153762 6.27 0.22551L9.77 3.47551C9.84259 3.54547 9.90032 3.62935 9.93976 3.72213C9.97919 3.81492 9.99952 3.9147 9.99952 4.01551C9.99952 4.11632 9.97919 4.21611 9.93976 4.30889C9.90032 4.40167 9.84259 4.48555 9.77 4.55551L6.27 7.80551C6.19981 7.87726 6.11593 7.93419 6.02333 7.97292C5.93073 8.01166 5.8313 8.03141 5.73093 8.03102C5.63055 8.03062 5.53128 8.01008 5.43899 7.97061C5.3467 7.93114 5.26328 7.87355 5.19365 7.80125C5.12403 7.72895 5.06963 7.64341 5.03367 7.5497C4.99771 7.45599 4.98093 7.35601 4.98432 7.25569C4.98771 7.15538 5.0112 7.05676 5.0534 6.96569C5.0956 6.87462 5.15565 6.79295 5.23 6.72551L7.388 4.76551H0.75C0.551088 4.76551 0.360322 4.68649 0.21967 4.54584C0.0790175 4.40519 0 4.21442 0 4.01551Z" fill="#FF2D3D"/>
</svg>
