<svg width="14" height="16" viewBox="0 0 14 16" fill="none" xmlns="http://www.w3.org/2000/svg">
<path fill-rule="evenodd" clip-rule="evenodd" d="M12.1048 9.245C11.8549 10.1775 11.364 11.0277 10.6814 11.7103C9.99875 12.393 9.14851 12.8839 8.21606 13.1338C7.28361 13.3837 6.3018 13.3838 5.36931 13.134C4.43682 12.8843 3.58649 12.3935 2.90377 11.711L2.59176 11.4H5.02477C5.22368 11.4 5.41444 11.321 5.5551 11.1803C5.69575 11.0397 5.77477 10.8489 5.77477 10.65C5.77477 10.4511 5.69575 10.2603 5.5551 10.1197C5.41444 9.97902 5.22368 9.9 5.02477 9.9H0.781765C0.582853 9.9 0.392087 9.97902 0.251435 10.1197C0.110783 10.2603 0.0317652 10.4511 0.0317652 10.65V14.892C0.0317652 15.0909 0.110783 15.2817 0.251435 15.4223C0.392087 15.563 0.582853 15.642 0.781765 15.642C0.980678 15.642 1.17144 15.563 1.3121 15.4223C1.45275 15.2817 1.53176 15.0909 1.53176 14.892V12.462L1.84176 12.772C2.71061 13.6411 3.79293 14.2661 4.97991 14.5842C6.1669 14.9024 7.41672 14.9024 8.60374 14.5844C9.79075 14.2663 10.8731 13.6414 11.742 12.7724C12.611 11.9035 13.2358 10.821 13.5538 9.634C13.6055 9.44185 13.5788 9.23703 13.4795 9.06459C13.3801 8.89215 13.2164 8.76622 13.0243 8.7145C12.8321 8.66278 12.6273 8.68952 12.4549 8.78882C12.2824 8.88812 12.1565 9.05285 12.1048 9.245ZM13.3348 5.522C13.4751 5.38132 13.5539 5.1907 13.5538 4.992V0.75C13.5538 0.551088 13.4747 0.360322 13.3341 0.21967C13.1934 0.0790178 13.0027 0 12.8038 0C12.6049 0 12.4141 0.0790178 12.2734 0.21967C12.1328 0.360322 12.0538 0.551088 12.0538 0.75V3.181L11.7438 2.871C10.8749 2.00194 9.7926 1.37692 8.60562 1.05878C7.41863 0.740641 6.16881 0.740586 4.98179 1.05862C3.79478 1.37666 2.7124 2.00158 1.84348 2.87056C0.974563 3.73955 0.349718 4.82196 0.0317652 6.009C0.00286642 6.10511 -0.00644871 6.20604 0.00437185 6.30582C0.0151924 6.4056 0.0459285 6.50219 0.0947592 6.58987C0.14359 6.67755 0.209522 6.75454 0.288649 6.81628C0.367776 6.87801 0.45849 6.92324 0.555415 6.94928C0.65234 6.97532 0.753505 6.98164 0.852917 6.96786C0.952329 6.95409 1.04797 6.92051 1.13416 6.8691C1.22036 6.81769 1.29536 6.74951 1.35473 6.66859C1.41409 6.58767 1.45661 6.49565 1.47976 6.398C1.72934 5.46507 2.22015 4.61431 2.90285 3.93126C3.58555 3.24821 4.43606 2.75696 5.36886 2.50691C6.30165 2.25686 7.28385 2.25682 8.21666 2.50681C9.14947 2.7568 10 3.248 10.6828 3.931L10.9938 4.241H8.56176C8.36285 4.241 8.17209 4.32002 8.03144 4.46067C7.89078 4.60132 7.81177 4.79209 7.81177 4.991C7.81177 5.18991 7.89078 5.38068 8.03144 5.52133C8.17209 5.66198 8.36285 5.741 8.56176 5.741H12.8048C13.0035 5.74109 13.1941 5.66233 13.3348 5.522Z" fill="#FF2D3D"/>
</svg>
