<svg width="20" height="20" viewBox="0 0 20 20" fill="none" xmlns="http://www.w3.org/2000/svg">
<path fill-rule="evenodd" clip-rule="evenodd" d="M5.50092 17C4.43308 17.0012 3.39964 16.6226 2.58528 15.9318C1.77093 15.2411 1.22875 14.2833 1.05563 13.2296C0.882517 12.1759 1.08976 11.0949 1.64031 10.1799C2.19086 9.26498 3.04885 8.5756 4.06092 8.23504C3.88905 7.20087 4.08365 6.13916 4.61112 5.23317C5.13859 4.32718 5.96583 3.63379 6.95002 3.27269C7.93422 2.91159 9.01361 2.90544 10.0018 3.25531C10.9901 3.60519 11.8252 4.28912 12.3629 5.18904C12.9681 4.98076 13.6189 4.94242 14.2443 5.0782C14.8698 5.21398 15.4461 5.51867 15.9105 5.95913C16.3749 6.39959 16.7096 6.95896 16.8782 7.57639C17.0468 8.19382 17.0429 8.84567 16.8669 9.46104C17.6579 9.87768 18.2864 10.5473 18.6523 11.3629C19.0182 12.1786 19.1003 13.0933 18.8855 13.9611C18.6707 14.8289 18.1714 15.5997 17.4673 16.1505C16.7632 16.7013 15.8949 17.0004 15.0009 17H5.50092ZM9.25092 14.25C9.25092 14.449 9.32994 14.6397 9.47059 14.7804C9.61124 14.921 9.80201 15 10.0009 15C10.1998 15 10.3906 14.921 10.5312 14.7804C10.6719 14.6397 10.7509 14.449 10.7509 14.25V9.66004L12.7009 11.76C12.8362 11.9059 13.0238 11.9921 13.2226 11.9996C13.4214 12.0071 13.6151 11.9353 13.7609 11.8C13.9068 11.6648 13.993 11.4771 14.0005 11.2783C14.008 11.0795 13.9362 10.8859 13.8009 10.74L10.5509 7.24004C10.4807 7.16431 10.3956 7.1039 10.301 7.06258C10.2063 7.02127 10.1042 6.99994 10.0009 6.99994C9.89765 6.99994 9.7955 7.02127 9.70086 7.06258C9.60622 7.1039 9.52113 7.16431 9.45092 7.24004L6.20092 10.74C6.06566 10.8859 5.99389 11.0795 6.00139 11.2783C6.00889 11.4771 6.09505 11.6648 6.24092 11.8C6.38679 11.9353 6.58042 12.0071 6.7792 11.9996C6.97799 11.9921 7.16566 11.9059 7.30092 11.76L9.25092 9.66004V14.25Z" fill="#FF2D3D"/>
</svg>
