<svg width="14" height="18" viewBox="0 0 14 18" fill="none" xmlns="http://www.w3.org/2000/svg">
<path fill-rule="evenodd" clip-rule="evenodd" d="M7 0C5.80653 0 4.66193 0.474106 3.81802 1.31802C2.97411 2.16193 2.5 3.30653 2.5 4.5V8H2C1.46957 8 0.960859 8.21071 0.585786 8.58579C0.210714 8.96086 0 9.46957 0 10V16C0 16.5304 0.210714 17.0391 0.585786 17.4142C0.960859 17.7893 1.46957 18 2 18H12C12.5304 18 13.0391 17.7893 13.4142 17.4142C13.7893 17.0391 14 16.5304 14 16V10C14 9.46957 13.7893 8.96086 13.4142 8.58579C13.0391 8.21071 12.5304 8 12 8H11.5V4.5C11.5 3.30653 11.0259 2.16193 10.182 1.31802C9.33807 0.474106 8.19347 0 7 0ZM10 8V4.5C10 3.70435 9.68393 2.94129 9.12132 2.37868C8.55871 1.81607 7.79565 1.5 7 1.5C6.20435 1.5 5.44129 1.81607 4.87868 2.37868C4.31607 2.94129 4 3.70435 4 4.5V8H10Z" fill="#FF2D3D"/>
</svg>
